<?xml version="1.0" encoding="UTF-8" standalone="no"?>
<svg
   xmlns:dc="http://purl.org/dc/elements/1.1/"
   xmlns:cc="http://creativecommons.org/ns#"
   xmlns:rdf="http://www.w3.org/1999/02/22-rdf-syntax-ns#"
   xmlns:svg="http://www.w3.org/2000/svg"
   xmlns="http://www.w3.org/2000/svg"
   xmlns:sodipodi="http://sodipodi.sourceforge.net/DTD/sodipodi-0.dtd"
   xmlns:inkscape="http://www.inkscape.org/namespaces/inkscape"
   version="1.1"
   viewBox="0 0 297 264"
   enable-background="new 0 0 297 297"
   id="svg2"
   inkscape:version="0.91 r13725"
   sodipodi:docname="logo.svg"
   width="297"
   height="264">
  <metadata
     id="metadata11">
    <rdf:RDF>
      <cc:Work
         rdf:about="">
        <dc:format>image/svg+xml</dc:format>
        <dc:type
           rdf:resource="http://purl.org/dc/dcmitype/StillImage" />
        <dc:title></dc:title>
      </cc:Work>
    </rdf:RDF>
  </metadata>
  <defs
     id="defs9" />
  <sodipodi:namedview
     pagecolor="#ffffff"
     bordercolor="#666666"
     borderopacity="1"
     objecttolerance="10"
     gridtolerance="10"
     guidetolerance="10"
     inkscape:pageopacity="0"
     inkscape:pageshadow="2"
     inkscape:window-width="1301"
     inkscape:window-height="744"
     id="namedview7"
     showgrid="false"
     fit-margin-top="0"
     fit-margin-left="0"
     fit-margin-right="0"
     fit-margin-bottom="0"
     inkscape:zoom="0.79461279"
     inkscape:cx="13.213983"
     inkscape:cy="132"
     inkscape:window-x="65"
     inkscape:window-y="39"
     inkscape:window-maximized="1"
     inkscape:current-layer="svg2" />
  <g
     id="logo"
     transform="translate(0,-16.5)">
    <path
       d="M 285.833,99.5 C 292.433,99.5 297,93.6 297,87 l 0,-8.5 c 0,-6.6 -4.855,-13.172 -11.297,-14.604 L 193.229,43.287 C 184.995,27.38 168.44,16.5 149.292,16.5 c -19.126,0 -35.686,10.855 -43.928,26.733 L 11.872,63.905 C 5.429,65.332 0,71.9 0,78.5 L 0,87 c 0,6.6 5.733,12.5 12.333,12.5 l 4.667,0 0,164 -8.667,0 C 3.915,263.5 0,267.082 0,271.5 l 0,1 c 0,4.418 3.915,8 8.333,8 l 281,0 c 4.418,0 7.667,-3.582 7.667,-8 l 0,-1 c 0,-4.418 -3.249,-8 -7.667,-8 l -8.333,0 0,-164 4.833,0 z M 156.758,93.83 c 0,-11.166 -7.445,-21.985 -7.445,-21.985 0,0 -7.443,10.819 -7.443,21.985 -18.805,0 -22.527,-18.61 -15.084,-29.776 4.012,-6.016 12.289,-12.815 12.082,-24.258 -0.049,-2.683 2.787,-4.445 5.184,-3.238 3.033,1.526 6.57,3.915 8.895,7.44 7.986,12.1 3.963,23.914 3.963,23.914 0,0 5.078,-2.892 9.371,-8.01 1.674,-1.996 4.857,-1.58 5.969,0.776 5.283,11.203 6.443,33.152 -15.492,33.152 z M 99.833,222.75 c 0,-4.557 3.693,-8.25 8.25,-8.25 4.557,0 8.25,3.693 8.25,8.25 0,4.557 -3.693,8.25 -8.25,8.25 -4.557,0 -8.25,-3.693 -8.25,-8.25 z m 90.25,8.25 c -4.557,0 -8.25,-3.693 -8.25,-8.25 0,-4.557 3.693,-8.25 8.25,-8.25 4.557,0 8.25,3.693 8.25,8.25 0,4.557 -3.693,8.25 -8.25,8.25 z M 166,230.5 l -33,0 0,-16 33,0 0,16 z m 24,-32 -33,0 0,-33 33,0 0,33 z m -50,0 -33,0 0,-33 33,0 0,33 z m -33,49 84,0 0,16 -84,0 0,-16 z m 124,16 -24,0 0,-16.013 c 5,-0.134 8,-3.765 8,-8.237 l 0,-0.5 c 0,-4.473 -3,-8.104 -8,-8.237 l 0,-70.013 c 0,-6.6 -5.067,-12 -11.667,-12 l -30.333,0 0,-17 -33,0 0,17 -28.667,0 c -6.6,0 -12.333,5.4 -12.333,12 l 0,70.013 c -4,0.134 -8,3.765 -8,8.237 l 0,0.5 c 0,4.473 4,8.104 8,8.237 l 0,16.013 -24,0 0,-164 45.9,0 c 9.047,9.834 22.018,16 36.434,16 14.415,0 27.387,-6.166 36.434,-16 l 45.232,0 0,164 z"
       id="path5"
       inkscape:connector-curvature="0" />
  </g>
</svg>
